# xmcd
#
# Track frame offsets: 
#        150
#        14521
#        28475
#        39229
#        52355
#        72327
#        86393
#        105335
#        130304
#        147927
#        169850
#        180659
#        194954
#        210209
#        221167
#        233175
#
# Disc length: 3558 seconds
#
# Revision: 1
# Processed by: cddbd v1.5.2PL0 Copyright (c) Steve Scherf et al.
# Submitted via: ExactAudioCopyFreeDBPlugin 1.0
#
DISCID=f10de410
DTITLE=The White Stripes - Under Great White Northern Lights
DYEAR=2010
DGENRE=Alt. Rock
TTITLE0=Let's Shake Hands
TTITLE1=Black Math
TTITLE2=Little Ghost
TTITLE3=Blue Orchid
TTITLE4=The Union Forever
TTITLE5=Ball And Biscuit
TTITLE6=Icky Thump
TTITLE7=I'm Slowly Turning Into You
TTITLE8=Jolene
TTITLE9=300 M.P.H. Torrential Outpour Blues
TTITLE10=We Are Going To Be Friends
TTITLE11=I Just Don't Know What To Do With Myself
TTITLE12=Prickly Thorn, But Sweetly Worn
TTITLE13=Fell In Love With A Girl
TTITLE14=When I Hear My Name
TTITLE15=Seven Nation Army
EXTD=
EXTT0=
EXTT1=
EXTT2=
EXTT3=
EXTT4=
EXTT5=
EXTT6=
EXTT7=
EXTT8=
EXTT9=
EXTT10=
EXTT11=
EXTT12=
EXTT13=
EXTT14=
EXTT15=
PLAYORDER=
